<?xml version="1.0" encoding="utf-8"?>
<!-- Generator: Adobe Illustrator 24.1.1, SVG Export Plug-In . SVG Version: 6.00 Build 0)  -->
<svg version="1.1" id="Layer_1" xmlns="http://www.w3.org/2000/svg" xmlns:xlink="http://www.w3.org/1999/xlink" x="0px" y="0px"
	 viewBox="0 0 500 500" style="enable-background:new 0 0 500 500;" xml:space="preserve">
<style type="text/css">
	.st0{fill-rule:evenodd;clip-rule:evenodd;fill:url(#SVGID_1_);}
	.st1{fill-rule:evenodd;clip-rule:evenodd;fill:#121210;}
</style>
<g>
	
		<linearGradient id="SVGID_1_" gradientUnits="userSpaceOnUse" x1="0.4729" y1="-0.0185" x2="0.6192" y2="-0.0185" gradientTransform="matrix(888.3421 -864.9641 864.9641 888.3421 -228.9873 746.483)">
		<stop  offset="0" style="stop-color:#9D141C"/>
		<stop  offset="0.6" style="stop-color:#C04215"/>
		<stop  offset="1" style="stop-color:#E4700D"/>
	</linearGradient>
	<path class="st0" d="M218.66,178.85c2.96-1.2,4.14-2.64,7.7-2.73c1.29-1.41,5.48-1.92,6.07-3.43c0.43-1.11,0.19-1.23,1.34-1.88
		c1.37-0.78,3.61-1.04,5.34-0.96c2.81,0.13,4.94-0.72,5.51,0.6c-0.88,0.39-1.47,0.23-2.17,0.86c-0.78,0.71-0.25,0.31-1.21,0.7
		c-0.8,0.32-0.18,0.17-0.77,0.5c-0.27-0.74-1.08-1.55-2.11-1.56c-0.17,0-3.16,0.54-3.26,0.58c0.54,2.89,2.87-1.09,4.39,3.29
		c0.03-0.04,0.06-0.17,0.08-0.14c0.01,0.03,0.06-0.11,0.08-0.14c0.41-0.74,0.07-0.44,0.43-0.66c0.46,0.64,0.82,1.99,1.35-0.05
		c0.98,0.96,2.87-0.01,4.86-0.6c1.23-0.36,3.8-1.46,5.14-1.2c-0.18,1.05-1.59,1.28-1.77,2.32c0.91-0.1,2.17-1.12,3.3-1.48
		c3.04-0.97,6.4-0.7,9.37-0.66c1.7,0.03,3.35-0.14,5.06,0.03c0.79,0.07,1.53,0.23,2.27,0.33c1.49,0.2,5.28,0.18,6.13,1.71
		c0.03,0.05,0.1,0.22,0.12,0.27l0.11,0.28c1.26-0.34,1.33-0.2,2.58,0.08c5.43,1.22,0.85,1.59,3.73,2.73
		c4.14,1.64,7.6,4.29,8.33,4.62c1.33,0.6,1.16-1.34,4.49,1l5.97,3.73c2.95,1.68,5.09,5.96,6.47,6.43c-0.81-1.22-4.06-4.27-3.98-6.02
		c2.6-0.84,4.75,3.35,6.63,5.88l5.08,8.05c0.74,0.88,0.27-0.13,0.61,0.88c0.41,1.19,1.07,1.96,2.05,2.91
		c0.47,0.46,1.3,0.82,1.58,1.64c1.09,3.25,2.31,2.04,3.37,6.36c0.48,1.94,1.37,3.22,1.68,5.13c3.14,10.48,6.64,23.89,7.18,36.91
		c0.06-0.06,0.15-0.13,0.31-0.25c0.11,1.15-0.05,1.85,0.21,3.03c0.26,1.24,0.26,1.65,0.07,2.95c-0.42,2.93,0.65,0.78-0.89,5.67
		l-0.09,0.11c-0.53,4.32-1.52,8.48-3.13,12.32c-2.68,8.32-3.45,11.96-8.07,19.13c-1.41,2.2-0.23,1.04-2.58,4.08l-3.05,3.79
		c-1.45,2.01-0.59,1.5-2.99,3.86c-1.04,1.02-2.36,2.21-3.12,3.78l-3.1,3.13c-0.64,0.54-0.83,0.44-0.85,1.41
		c-1.01-0.35-0.28-0.34-1.17,0.55c-1.19,1.18-3.41,2.09-4.37,3.62c-0.98-0.14-0.93-0.39-1.89,0.57c-0.04,0.04-0.14,0.16-0.18,0.2
		l-0.2,0.19c-0.05,0.05-0.34,0.25-0.44,0.34c-0.35,0.29-0.52,0.51-0.79,0.79c1.11-0.08,1.08-0.52,2.02,0.06l0.76,0.38
		c-0.8,0.69-0.68,1.17-1.95,1.18c0.47-0.72,0.46-0.27,0.84-1.07c-0.97,0.13-1.5,0.62-2.32,1.01c-0.44,0.21,0.15,0.04-0.36,0.1
		c-0.56,0.06,0.33-0.06-0.42-0.02c-0.72,0.04-0.72,0.2-1.18,0.81l-0.54,0.6c-1.08,0.89-2.23,1.52-3.36,2.16
		c-1.17,0.67-1.75,0.81-2.86,1.69c-0.02,0.82,0.3,0.77-0.12,1.24l0.92,0.18c-1.53,1-0.86-0.61-2.75,1.03
		c-0.5,0.44-0.48,0.37-0.6,1.17l3.03-1.06c-0.39,0.19-0.73,0.48-1.21,0.72c-1.07,0.53-0.78,0.04-1.21,1.07
		c-0.84-0.86-1.34,0.14-1.83,0.97c0.68-0.14,0.71-0.41,1.28-0.19c-0.38,0.18-1.2,0.37-1.52,0.78c-0.54,0.67-0.03,1.06-0.95,1.45
		l0.49-1.2c-1.56-0.07-0.42,0.5-1.49,1.04c-1.01,0.51-0.79-0.14-1.76,0.9c-0.63,0.67-0.45-0.09-0.51,0.86
		c-0.05,0.94,0.22,0.67,0.75,1.18l0.38,0.34c0.34,0.28,0.13,0.08,0.41,0.49c1.09,0.07,1.28-0.06,1.65-0.55
		c0.55-0.73-0.4-0.01,0.39-0.55c1.06-0.15,1.24,0.22,1.99,0.42c0.68-1.07-0.01-0.35,1.08-0.81c0.46-0.2,0.77-0.44,1.42-0.58
		c-0.04,0.04-0.09,0.05-0.1,0.12c-0.1,0.41-0.77,0.69-1.06,0.93c-0.03,0.03-0.07,0.06-0.1,0.09c-1.06,0.98-0.29,0.64-1.97,0.73
		c-0.02,0-0.08,0-0.12,0.01l0,0.22c0.06,0.52,0.34,0.16-0.07,0.83c-0.77,1.28-0.56,0.02-0.98,0.91c0.21,0.88,0.61,0.78,1.49,0.82
		l0.32,0.7c0.06-0.02,0.32-0.37,0.35-0.39c0.54-0.27,0.67,0.16,1.85-0.68c0.9-0.65,1.05-1.08,2.31-1.5
		c1.08-0.37,2.82-0.42,3.22-1.55c0.31-0.9-0.18-0.24-0.03-1.16c0.03-0.19,0.12-0.49,0.15-0.79l1.61-0.32
		c-0.14-0.07-0.4-0.25-0.58-0.46c0.11-0.11,0.2-0.18,0.28-0.26l0.35-0.36c-1.06,0.14-0.6,0.14-1.23,0.79L291.1,338l-0.4,0.85
		c-0.21,0.37-0.06,0.26-0.56,0.42c0.01-0.04,0.05-0.12,0.06-0.1l0.22-0.69c-1.38-0.04-0.52,0.48-1.22,1.12
		c-1.1,1-0.94-0.52-1.04,1.65c-1.37,0-0.35,0.48-1.3,0.88c-0.5-0.96,0.38,0.13-0.08-0.61c-0.29-0.46,0.29,0.08-0.27-0.23
		c-0.04-0.02-0.1-0.04-0.14-0.06c-0.05-0.02-0.26-0.07-0.32-0.1c0.03-0.04,0.08-0.16,0.1-0.13l0.43-0.63
		c0.12-0.22,0.3-0.52,0.15-0.91c-1.26-0.36-2.57,1.27-3.74,1.32c0.64-0.34,3.07-1.98,3.94-2.05c1.35-0.12-0.09,0.85,3.15-0.7
		c1.6-0.76,1.42-0.66,0.72-2.09c0.65-0.49,1.46-0.64,2.28-1.05c0.54-0.27,0.64-0.52,1.4-0.66c-0.58,2.75-1.76,0.33-3,2.67
		c0.79,0.5-0.16,0.1,0.91,0.17c0.45,0.03,0.42,0.06,0.89,0.17c-0.06-0.62-0.05-0.47-0.33-0.87l0.74-0.23
		c0.27,0.63-0.52,0.39,0.37,0.7c0.09-0.16,0.86-1.86,0.93-2.08c0.04,0.04,0.07,0.06,0.09,0.13c0.02,0.07,0.07,0.1,0.09,0.13
		c0.45,0.59,0.61,0.66,1.43,0.54c0.06-0.01,0.21-0.04,0.26-0.04c0.03,0,0.09-0.01,0.12-0.02c0.03,0,0.1-0.01,0.12-0.02
		c0.02,0,0.08,0,0.12-0.01c0.07-0.36-0.02-1.08-0.28-1.49c-0.69-1.12-0.27,0.46-0.65-0.6c0.21-0.19,1.1-0.71,1.58-0.77l0.38,0.85
		l1.49-0.83c-0.25,1.12-0.65,0.58-1.44,1.42c0.19,0.58-0.28,0.15,0.66,0.49c-0.79,0.53-0.18,0.43-0.71,1.3l-0.38-0.79l-0.64,1
		c-0.35,0.66-0.63,0.89-1.64,1.04c-0.3-0.53-0.22-0.78-0.79-0.97c-0.46,1.4,0.52,1.98-1.86,1.64l0.42,2.13
		c1.41-0.26,1.28-1.17,2.77-1.11c0.13-1.99,0.11-1.26,1.74-1.37c0.67-0.79,0.36-1.22,2.04-1.15c-0.19,0.82-0.21,0.65-0.79,0.96
		l0.44,0.27c0.38,0.28,0.2-0.04,0.44,0.38l-1.38,0.4l0.22,0.48c0.01,1.18-0.44-0.74-0.02,0.27c1.25-0.36,1.24-0.55,2.43-0.05
		l0.36-1.06c1.46,0.11,1.63-0.42,2.21,0.26c-1.25,0.38-3.17,1.18-4.63,1.75c-1.41,0.54-3.29,1.45-4.78,1.77
		c0.11,1.05,0.41,0.18,0,0.85c-1.44,0.12,0-0.06-0.68-0.35c-0.44-0.19-0.49-0.03-0.78,0.22c-0.96,0.83-0.24,0.46-1.7,0.77
		c-1.18,0.25-2.18,1.05-3.43,1.51c-2.52,0.92,0.54,0.5-3.25,1.32c-2.84,0.62-1.68,0.95-3.14,1.71c-0.03,0.02-0.1,0.04-0.15,0.07
		c0.83-0.1,0.99-0.46,1.37-0.22c-0.82,1.08-3.5,1.14-4.06,1.24c-0.92,0.16-3.58,0.66-3.91,1.43c0.71,0.33,1.41-0.21,2.43-0.18
		c-0.51,0.73-0.67,0.28-1.66,1.13l-0.63,0.61c3.16-0.48,2.95-1.26,3.57-1.85c0.46-0.43,0.7-0.35,1.18-0.66l0.27,0.17
		c0.8,0.54,0.98,0.7,2.91,0.16c2.11-0.59,1.25-0.45,1.92-0.98c0.29-0.23,0.34-0.25,0.8-0.25l-0.64,0.62l1.39,0.05l-0.28,0.84
		c-0.09,0.56,0.37,0.56-0.49,0.85c-1.16,0.39-1.71-0.09-2.67-0.26c-1.16-0.21-1.42,0.2-2.25,0.49c-0.93,0.33-4.47,0.63-6.92,2.01
		c-0.47,0.27-1.33,0.77-1.83,1.02c-1.35,0.69-2,0.61-2.16,1.36l0.11,1.12c0.44,0.79,0.03,0.09,0.38,0.44
		c0.42-0.39,0.49-0.14,0.28-0.64c-0.38-0.87,0.12,0.65-0.47-0.37c0.73-0.26,0.92-0.55,1.53-0.95c0.17,0.29,0.26-0.1,0.09,0.67
		c-0.35-0.5-0.08-0.31-0.75-0.2l-0.03,1.42c1.02-0.25,1.52-0.82,2.14-1.37c1.13-1.01,0.89-0.67,2.28-0.74
		c0.02-0.54-0.08-0.6-0.33-0.93l1.5,0.09c-0.11,0.84-0.53,0.72-0.48,1.78c1.61-0.11,4.13-0.82,5.64-1.27
		c1.04-0.3,1.81-0.56,2.73-0.9c1.24-0.46,1.91-0.37,1.51-1.78l-0.8,0.82c-0.64-0.05-0.61-0.01-1.04-0.42
		c0.26-0.43,1.76-0.86,2.37-1.15c1.5-0.71,1.58-0.44,2.29,0.58c0.69-0.11,0.84-0.26,1.46-0.44c1.06-0.3,1.11,0.03,1.69-0.08
		c2.53-0.5,1.75-1.36,3.33-1.51c2.13-0.2,1.11-0.79,2.45-1.02c0.57-0.1,0.67-0.17,1.13-0.41c0.71-0.36,1.29-0.66,1.99-1.04
		c1.78-0.98,1.61-0.47,1.74-1.27c2.37-0.46,2.15,0.14,4.86-1.63l11.98-7.97c0.22,0.26,0.35,0.49,0.77,0.51
		c0.44,0.02,0.41-0.14,0.88-0.33c-0.31,0.99-0.55,0.47-0.79,1.21c0.46-0.09,5.11-4.48,5.53-4.92c1.36-1.44,2.85-2,5.74-5.11
		c1.15-1.24,2.01-0.82,3.28-2.04c0.85-0.82,1.8-1.75,2.57-2.75c1.17-1.52,0.74-1.95,2.72-2.63c0.92-0.32,1.85-2.21,2.34-3.11
		c0.02-0.04,0.02-0.17,0.03-0.14c0,0.03,0.02-0.11,0.03-0.14c0.18-0.86,0.01-0.29,1.16-1.39c0.68-0.65,1.04-0.88,1.56-1.87
		c1-1.9,1.65-2.85,3.83-2.63c1.44-3.94,2.98-4.91,4.24-8.3c0.77-2.08,0.87-0.89,1.64-2.54c0.89,0.17,0.29,0.03,0.95,0.63l1.79-5.73
		c0.21-0.51,0.69-1.13,0.98-1.67c0.49-0.9,0.14-3.1,0.22-4.44c0.05-0.96,0.37-0.98,0.69-1.68c0.36-0.79,0.3-1.43,0.53-2.14
		c0.21-0.65,0.54-0.86,0.87-1.6c0.22-0.5,0.39-1.27,0.72-1.76c1.05-1.59,2.17-1.62,1.74-3.19c-0.49-1.8-1.28,0.09-0.25-3.51
		c1.35-4.71,1.17-1.7,2.13-3.09c0.15-1.59,0.34-3.07,0.58-4.65l0.49-7.68c-0.04-1.33,0.34-1.28,0.49-2.33
		c0.3-2.02-0.44-1.1,0.47-2.24c0.56-0.7,0.62-1.29,0.26-2.3c-0.22-0.62-0.77-1.22-0.94-1.76l-0.48-4.86
		c0.19-1.02,0.76-0.92,0.91-1.95c0.12-0.82,0-1.71,0.32-2.39c0.61-1.31,0.54-0.5,0.42-2.17c-0.07-0.91,0.16-1.81,0.11-2.44
		c-0.11-1.52-0.49,0.32-0.18-2.28c-0.32-0.39-0.9-0.65-1.05-1.23c-0.2-0.8,0.17-1.03-0.18-2.12l-1.03-5.82
		c-0.07-1.28,0.06-0.91-0.46-1.83c-0.65-1.16-0.57-2.64-1.04-3.54c-0.45-1.15-0.45-0.67-0.54-2.15c-0.05-0.86-0.28-1.58-0.54-2.28
		c-0.9-2.42-0.59-2.61-1.74-4.03c0.27-0.83,0.54-0.58,0.26-1.31c-0.14-0.37-0.52-0.84-0.68-1.42c-0.36-1.26,0.2-0.73-0.75-3.43
		c-0.22-0.62-0.44-0.93-0.63-1.46c-0.21-0.57-0.21-1.16-0.46-1.66c-0.24-0.5-0.58-0.72-0.88-1.21c-0.3-0.49-0.46-0.88-0.67-1.43
		l-0.87,0.01c0.28-0.9,0.81-1.07,0.44-2.02c-0.3-0.78-0.83-0.91-1.18-1.49c-1.27-2.07-0.04-2.31-2.63-5.37
		c-1.33-1.57,0.31-0.65-3.16-5.02c-3.44-4.34-1.18-2.96-2.77-5.22c-0.41-0.58-0.61-1.11-1.04-1.63c-0.54-0.66-0.83-0.53-1.44-1.23
		c-1.3-1.5-0.61-0.59-1.4-1.26c-0.65-0.56-0.44-1.01-0.99-1.67c-0.44-0.52-1-0.59-1.75-1.04c-0.37-1.45,0.84-2.04-0.83-2.86
		c-1.24-0.61-1.29-0.91-2.04-1.95c-0.97-1.36-2.14-3.68-4.04-3.9l-0.13-0.3c-0.29-0.64-0.02-0.47-0.52-0.81
		c-0.37-0.26-0.86-0.21-1.43-0.25c-0.53-1.76-1.17-1.88-2.25-2.92c-1.12-1.08-4.5-3.54-5.91-4.35c-0.92-0.53-0.8-0.79-1.47-1.22
		c-0.65-0.42-1.07-0.53-1.71-0.94c-1.19-0.77-2.02-1.25-3.15-1.98c-0.63-0.41-1.05-0.71-1.73-0.95c-0.68-0.24-1.59-0.18-2.12-0.51
		c-1.15-0.71,0.61-0.92-6.44-4.02c-1.13-0.5-9.86-4.28-10.52-5.09c-0.63-0.77-0.17-0.84-1.49-1.16c-0.79-0.19-1.41-0.27-2.18-0.49
		c-1.26-0.35-2.75-0.74-4.11-1c-2.18-0.41-2.48,0.09-4.28-1.07c-1.16-0.75-2.68-0.72-4.2-0.91c-3.06-0.39-4,0.03-4.98-0.11
		c-1.03-0.51-3.7-0.63-5.04-0.4c-2.37,0.41-4.42-0.78-7.62-0.25c-1.42,0.24-1.17,0.03-2.25-0.28c-1.13-0.32-15.67-0.56-16.81-0.47
		c-2.93,0.23-4.94-0.68-7.72,0.06c-1.07,0.29-0.84,0.81-1.61,1.43c-1.7-0.07,0.11-0.53-1.71-0.51c-1.09,0.01-0.76,0.43-1.72,0.52
		c-6.44,0.62-3.33,0.84-5.14,1.18c-1.29,0.24-2.44,0.04-4.53,1.61c-0.32,0.07-3.04,0.78-3.19,0.86c-0.58,0.3-0.46,0.6-1.41,0.69
		c-0.84,0.08-2.65-0.5-5.09,0.62c-1.15,0.53-1.28,1.47-2.53,1.61c-1.34,0.15-2.06,0.55-3.29,0.75l-3.53,0.67
		c-0.36,0.17-0.65,0.58-1.06,0.83c-1.22,0.74-2.17,0.19-3.51,2.72c-1.37,0.03-2.06-0.32-3.31,0.34c-1.29,0.69-1.12,1.11-1.34,2.66
		c-1.88,0.61-3.91,1.14-4.81,2.45c-0.9,0.05-2.19,0.85-2.87,1.64c-2.02,2.34-1.25,1.49-2.84,1.88c-1.6,0.39-1.56,1.83-2.34,2.25
		c-1.31,0.7-1.24-0.37-2.55,1.48c-0.51,0.72-0.38,0.07-0.98,0.92c-1.66,2.32-1.68,0.66-4.81,3.36l-4.34,3.64
		c-0.49,0.44-0.36,0.26-0.64,0.81c-0.39,0.11-0.1-0.06-0.54,0.29l-1.37,1.49c-1.35,1.48-0.81,0.41-1.88,2.11
		c-0.86,1.37-2.38,1.84-4.11,3.88c-1.22,1.44-2.41,2.63-3.52,4.28c-0.46,0.69-0.31,0.48-0.91,0.97c-0.5,0.4-2.29,2.51-2.01,3.73
		c-1.81,0.04-1.1,1.02-2.68,3.03c-1.53,1.96-3.45,5.09-4.88,6.91c-0.98,1.24-1.61,1.91-2.32,3.65c-1.19,1.14-3.13,4.28-3.61,6
		c-0.37,1.3-0.66,2.53-0.98,3.76c-0.17,0.64-0.41,1.18-0.67,1.83c-0.45,1.09-0.25,0.92-0.41,2.08c-0.15,1.13-0.43,0.52-0.61,1.73
		c-0.15,1.05-0.08,0.98-0.48,1.92c-0.94,2.16-0.02,2.99-0.35,3.84c-0.1,0.27-0.66,0.86-0.92,1.36c-0.48,0.94-0.23,1.02-0.44,1.99
		c-0.18,0.84-1.73,2.81-0.51,3.35c-0.81,0.55-0.74,0.54-0.87,1.72c-0.16,1.39-0.39,5.48,0.67,6.47l0.49,0.33
		c-1.89,2.62-1.43,2.91-1.29,5.84c0.06,1.16-0.31,1.35-0.31,2.47c-0.01,1.64,0.4,3.21,0.34,4.95c-0.06,1.79-0.38,3.26-0.16,5.02
		c0.29,2.28,1.92,5.4,2.69,7.81c0.96,3.04,1.62,4.95,2.09,8.32c0.19,1.32,0.97,3.25,0.83,4.29c-0.29,2.18-1.69,1.61-0.12,3.79
		c1.39,1.93,0.67,6.17,2.2,9.42c0.53,1.12-0.27,0.18,0.55,1.71l1.26,2.74c0.57,0.99,0.24,1.27,0.62,2.03
		c0.48,0.98,2.12,2.66,3.04,4.77c0.49,1.14,0.53,0.63,1.42,1.27c-0.17,0.12,0.12-0.03-0.38,0.22c-0.21,0.1-0.11,0.02-0.38,0.16
		c0.03,1.95,0.53,1.48,0.81,2.17c0.23,0.55-0.37,0.26,0.24,0.95c0.35,0.4,0.35,0.02,0.84,0.69c-0.3,0.26-0.61,0.18-1.02,0.12
		c0.07,1.23,3.04,5.2,4.04,5.78c1.1,0.65,0.26,0.51,1.17,1.32c0.62,0.55,0.79,0.59,1.38,1.28c0.62,0.72,1.8,2.15,2.18,2.96
		l0.82-0.83c0.21,1.26,0.25,1.26,0.99,1.87c0.86,0.72,0.71,1.22,1.22,1.63c0.84,0.67,1.23-0.07,1.83,1.03
		c0.31,0.57,0.45,1.49,0.81,2.05c0.53,0.81,2.22,1.84,2.97,2.73c0.83,0.99,1.84,2.54,2.62,3.27c0.6,0.56,0.47,0.16,0.93,0.57
		l0.26,0.31c0.19,0.21,0.17,0.18,0.4,0.37c0.53,0.45,1.37,1.8,2.71,3l2.89,2.8c0.56,0.54,0.72,1.15,1.24,1.62l3.86,3.37
		c0.64,0.59,0.22,0.2,0.96,0.57c0.99,0.49,0.58,0.92,1.25,1.6c0.35,0.36,1.17,0.76,1.64,1.22c1.01,1,1.56,2.23,2.74,2.97
		c1.28,0.8,2.92,2.66,4.74,4.01c2.11,1.57,2.71,3.85,6.65,4.76l6.89,1.69c1.42,0.4,1.54,0.07,2.81,0.2c0.6,0.42,0.49,0.64,1.05,1.06
		c0.36,0.27,0.98,0.47,1.39,0.72c1.23,0.73,2.36,0.35,3.31,0.87c0.49,0.26,0.64,0.71,1.05,1.04c0.61,0.5,0.77,0.32,1.46,0.63
		c1.07,0.48,0.3,1.06,2.64,1.73c2.92,0.83,4.49,0.62,7.6,0.49c2.58-0.11,3.92,0.32,4.6-0.88c0.24-0.42-0.58,0.08,0.2-0.25
		c0.9-0.37,0.49,0.8,0.43,1.25c1.22,0.22,4.79,0.18,5.96-0.13c2.7-0.71,5.65-0.49,8.22-1.67c2.05-0.94,1.83,0.14,4.86-1.81
		c1.14-0.74,1.49-0.54,2.93-0.57c0.26-0.99,1.36-1.95,2.61-1.9c0.3,0.49,0.12,0.83,0.38,1.28c1.25-1.62,0.47-1.14,0.6-2.76
		c1.22-0.6,2.37-1.35,3.51-2c0.88-0.51,1.14-0.11,1.69-0.97c0.35-0.55,0.72-1.32,1.02-1.84c0.98-1.72,1.92-1.71,2.69-2.83
		c0.46-0.68,0.44-1.12,1.05-1.8c1.34-1.51-0.01-2.7,1.86-6.51c1.98-4.05-1.48-3.18-2.08-5.26c-0.39-1.34,1.24-2.74-0.48-4.1
		c-0.97-0.76-0.96-0.05-2.26-0.16c-0.98-0.51-1.47-1.78-2.03-2.52c-0.9-0.14-1.36,0.01-2.11-0.07l-1.11-0.78
		c-0.02-0.03-0.04-0.09-0.07-0.13c-3.63,0.34-2.52-1.26-3.56-1.72c-1.54-0.11-2.68-0.15-4.05-0.52c-1.78-0.48-1.97-1.09-3.42,0.01
		c-1.52-0.76-2.56-0.17-4.15-0.42c-1.88-0.3-2.24-0.11-3.97,0.47c-0.39,2.78-1.74,2.11-2.01,0.91c-0.01-0.06-0.05-0.27-0.06-0.32
		l-0.08-0.3c-1.93,0.02-3.91,0.43-4.35-1.5c0.43-0.57,0.63-0.61,1.36-0.91l1.27-0.42c0.4-0.14,0.25-0.06,0.44-0.2
		c-0.74-0.56-0.68-0.26-1.57-0.16c-0.8,0.09-1.25-0.08-2.07,0.01c-0.43,0.59-0.72,1.42-1.16,2.04c-1.87,0.24-1.93-0.87-2.55-1.99
		c-0.41-0.74-1.88-1.37-2.94-1.61c-0.24,1.49,0.13,1.71-1.31,2.12c-2.63,0.74-3.12-0.49-4.7-2.04c-0.89-0.87-1.61-0.48-2.64-0.97
		l-2.2-1.23c-0.69-0.38-1.45-1-2.12-1.49c-2.7-1.96-5.27-4.24-7.51-6.56c-0.95-0.98-2.35-3.19-3.26-3.78
		c-1.69-1.12-1.19-1.63-2.26-2.87c-0.51-0.59-0.71-0.48-1.1-0.81c-0.56-0.48-0.22-0.43-0.56-1.13c-0.33-0.67-0.47-0.52-0.97-0.94
		c-0.61-0.52-0.93-1.35-1.64-2.02c-1.62,0.05-1.53,0.07-2.72-1.23c-0.73-0.8-1.3-1.53-1.95-2.43l-1.96-2.41
		c-0.7-1.04-0.37-2.32-1.75-2.87c-0.08,1.17,0.06,1.79,0.03,2.75c-1.28,0.91-1.68-0.13-2.96-1.48c-0.95-1-1.63-1.82-2.67-2.84
		c-3.33-3.26-3.14-3.6-3.38-7.67c-0.4,0.4-0.13,0.21-0.32,0.54c-0.47,0.81,0.22,0.32-0.58,0.63c-0.61-0.41-0.21-0.06-0.5-0.89
		c-0.33-0.95-1.09-1.64-1.13-2.71c-4.88-8.85-9.85-24.69-7.46-41.77c0.2-2.27,0.1-1.34,1.48-1.86c0.67-2.06,0.92-9.54,1.16-10.62
		c0.54-2.48,3.1-7.93,3.13-8.64c1.35-1.29,0.58-2.33,4.06-5.11c1.12-0.89,1.44-1.03,2.29-2.27c0.69-1.01,1.24-1.7,1.89-2.67
		c0.69-1.02,1.45-1.52,2.23-2.34c2.21-2.32,1.17-1.86,3.45-3.41c0.54-0.37,1.12-0.57,1.47-0.8l2.15-2.52l4.26-3.64l11.58-8.01
		c0.85-0.51,1.85-0.89,2.57-1.41l0.09-0.33c0.01-0.04,0.07-0.25,0.09-0.31c0.24-0.61,0.4-0.65,1.62-1.21
		c0.89-0.41,1.65-0.75,2.61-1.17C214.7,180.19,217.66,179.66,218.66,178.85L218.66,178.85z M261.64,171.18
		c0.93-0.16,0.61-0.36,1.57-0.61c0.5-0.13,1.22-0.19,1.86-0.27l0.13-0.61c-2.5-2.41-3.08-0.39-4.59-1.12
		c-1.96-0.94-3.52-0.19-5.24-0.71c-0.69-0.21-1.89-1.42-4.66-0.46c-1.64,0.56-3.64-0.08-5.68-0.06l0.53,1.86
		c0.69-0.08,3.25-0.57,3.82-0.27c-0.45,0.79-1.49,0.49-2.86,0.52c-1.24,0.03-0.82,0.05-0.93,0.19c-0.92,1.69,2.91,1.16,3.97,0.99
		c3.91-0.63,3.45-1.22,4.23,0.35c1.02,0.09,1.4,0,2.31-0.11c1.13-0.14,2.6,0.69,4.57,0.47
		C261.84,171.19,260.93,170.78,261.64,171.18L261.64,171.18z M188.78,306.88c-0.45-0.25-0.22-0.68-0.74-1.3
		c-1.69-2.05-0.64,0.13-1.55-3.2c-0.24-0.89-0.58-1.01-0.66-1.84l1.16-0.75c-0.18-0.99-0.21,0.09-0.75-2.08
		c-0.2-0.81-0.72-1.12-1.67-1.09c-0.99,1.4-0.66,2.26-1.8,2.62c-0.16-0.34-0.37-0.86-0.52-1.4c-0.3-1.12-0.01-0.26,0.38-1.23
		c-3.04-0.4-2.19,1.03-1.14,2.41c0.79,1.04,1.44,2.14,2.18,2.96C184.47,302.85,187.83,306.86,188.78,306.88L188.78,306.88z
		 M299.33,342.76c0.02-0.93,0.04-0.42,0.28-0.72l0.52-0.42c-0.73-0.42-2.32,1.52-2.81,1.91c-0.73,0.59-2.5,1.7-3.76,1.13
		c0.37-0.37,1.74-0.71,2.28-0.91c-0.29-0.21,0.02-0.1-0.46-0.19c-0.28-0.05-0.39-0.04-0.68-0.01c-4.8,0.45-2.73,2.23-6.51,3.95
		c1.03,0.63,3.41-0.91,4.1-1.4c1.31-0.92,3.22-0.79,4.93-0.36c-0.78,0.73-0.79,0.24-1.51,0.62c1.36,1.15,2.46,0.48,3.33-0.57
		c-0.44-0.29-0.76,0.17-1.67-0.62c0.32-0.66,7.22-3.96,8.07-4.64c-2.94-0.2-1.98,0.71-3.27,1.01
		C300.44,341.95,300.45,343.38,299.33,342.76L299.33,342.76z M292.22,329.1l-0.19,1c0.64,0.15,0.47,0.03,0.67,0.04
		c0.65,0.02,0.29-0.11,0.59,0.07c-0.45,0.86-0.24-0.58-1.22,0.62c-0.91,1.11-0.44,0.31-1.34,0.97c-0.24,0.17-0.37,0.35-0.43,0.72
		l0.05,0.66c0.16,0.71,0.27,0.91,1.26,1.39c0.44-0.51,0.54-0.61,0.14-1.12c0.05-0.03,0.13-0.1,0.15-0.06c0,0,0.45-0.05,0.65-0.51
		l-0.92-0.13c1.82-0.52,1.93-0.13,3.82-1.17c1.12-0.62,2.11-1.39,3.17-1.98c-0.86-0.43-0.53,0.33-0.97-0.53
		c0.22-0.43,0.15-0.21,0.4-0.44c0.14-0.13,0.05,0.1,0.39-0.33l-2.06,0.94c-0.3-0.57-0.84-1.25,0.31-1.28
		c1.06-0.02,1.35,0.39,1.62-0.9l-3.52,1.16c-0.78,0.34-0.08-0.18-0.71,0.45C292.69,330.06,293.15,329.6,292.22,329.1L292.22,329.1z"
		/>
	<path class="st1" d="M67.5,230.55h24.16c2.98,0,22.98-0.42,23.96,0.25c0.53,0.57,0.33,1.81,0.33,2.86c0,1.77,0.3,8.22-0.33,8.76
		c-1,0.51-43.07,0.21-48.12,0.21v36.4l12.14-0.01l0-24.23l22.32-0.03l14.02,24.26l13.97,0.01c-0.78-2.18-13.37-22.72-13.77-24.26
		c4.42-0.13,7.2-2.11,9.15-4.38c2.67-3.11,2.81-5.98,2.81-10.85c0-7.87,1.48-16.11-7.07-20.09c-3.37-1.57-8.33-1.11-12.48-1.11H67.5
		L67.5,230.55L67.5,230.55z M215.4,230.47l41.84,0.07c-0.51,0.81-4.93,4.41-6.02,5.38c-0.94,0.84-1.95,1.72-2.96,2.55l-15.13,13.03
		c-4.91,3.98-10.17,8.99-15.02,12.93c-0.55,0.45-0.98,0.89-1.54,1.31c-0.62,0.47-1.1,0.66-1.16,1.76
		c-0.21,3.53,0.02,7.85,0.01,11.47l60.59,0.02l0-12.09l-41.86-0.04c0.43-0.72,4.88-4.36,5.86-5.25c0.97-0.88,1.93-1.65,2.97-2.54
		c1-0.86,2.02-1.81,3.07-2.64l4.51-3.86c5.24-4.6,11.99-10.05,16.75-14.45l6.02-5.2c1.37-1.12,2.63-1.87,2.69-3.06
		c0.16-3.28,0.12-8.15-0.04-11.45c-4.85-0.22-10.14-0.02-15.04-0.02c-6.78,0-44.22-0.3-45.53,0.14L215.4,230.47L215.4,230.47z
		 M432.5,278.99v-60.61l-12.04,0l-0.1,41.8c-1.02-0.54-19.53-22.49-21.04-24.15c-4.07-4.45-9.07-10.92-13.02-15.13
		c-0.45-0.48-0.86-0.96-1.33-1.52c-0.52-0.63-0.52-1.01-1.71-1.02c-3.59-0.03-7.76-0.15-11.29,0.03l-0.1,60.51l12.18,0.09l0-41.85
		c0.81,0.53,27.7,32,31.63,36.54l4.65,5.27L432.5,278.99L432.5,278.99z M292.92,278.99l60.59,0.05l-0.01-12.17l-22.07,0.01
		l-26.29-0.02l-0.07-12.06l26.15-0.02l22.31-0.08l-0.02-12.07l-23.42,0.02l-37.17-0.03L292.92,278.99L292.92,278.99z M174.66,279
		l2.16-0.04c0.04-11.45,0.07-9.42-0.01-22.29c-0.01-2.67,0.64-2.89,3.06-6.12c1.44-1.92,22.86-31.34,23.13-32.15l-14.97,0
		l-17.26,23.84c-0.57-0.61-3.32-4.32-3.58-5.01c-0.9-0.79-2.66-3.59-3.48-4.68c-1.2-1.6-2.27-3.04-3.37-4.62
		c-0.86-1.24-6.46-8.74-6.63-9.46l-15.11-0.07c0.25,0.79,16.2,22.8,18.03,25.23c1.59,2.11,3.04,4.23,4.55,6.29
		c0.82,1.11,1.44,2.02,2.23,3.1c1.33,1.83,1.29,1.35,1.28,4.23c-0.02,7.01-0.31,14.77,0,21.68L174.66,279L174.66,279z
		 M292.93,218.39l-0.04,12.16l35.18,0.02l25.45-0.07l-0.09-12.18L292.93,218.39L292.93,218.39z"/>
</g>
</svg>
